<svg width="32" height="32" viewBox="0 0 32 32" fill="none" xmlns="http://www.w3.org/2000/svg">
<g clip-path="url(#clip0_611_1496)">
<path d="M24.9129 13.4734C24.4651 11.9295 23.6505 10.5168 22.5385 9.35593C21.4265 8.19506 20.0501 7.32044 18.5269 6.80671C17.022 6.36867 15.4402 6.26103 13.8899 6.49116C12.3395 6.7213 10.8572 7.28376 9.54446 8.14005C9.43644 8.24829 9.30098 8.32508 9.15262 8.36217C9.00426 8.39926 8.8486 8.39525 8.70235 8.35057C8.4075 8.25505 8.14183 8.08599 7.93042 7.85934C7.77652 7.58166 7.72675 7.25817 7.79007 6.94706C7.83028 6.79774 7.9009 6.65833 7.9975 6.53757C8.09411 6.41681 8.21462 6.31731 8.35148 6.24531C12.0708 4.06987 15.7199 3.50847 19.2287 4.63127C20.9561 5.20585 22.5332 6.15942 23.8446 7.42219C25.1559 8.68497 26.1683 10.225 26.8076 11.9295H31.5094C30.548 8.13722 28.2304 4.82858 24.9949 2.62917C21.7595 0.429759 17.8302 -0.507994 13.9502 -0.00678796C10.0702 0.494418 6.50825 2.39985 3.93786 5.34924C1.36747 8.29863 -0.0332243 12.0876 0.000598535 15.9997C0.000598535 16.6313 0.070774 17.1927 0.070774 17.8243H6.03569C6.26349 17.8113 6.48933 17.8728 6.67919 17.9994C6.86904 18.1259 7.01263 18.3108 7.08832 18.526C7.54666 20.0646 8.36499 21.4719 9.47552 22.6312C10.586 23.7905 11.9568 24.6686 13.4743 25.1927C14.9792 25.6307 16.561 25.7384 18.1113 25.5082C19.6617 25.2781 21.144 24.7156 22.4567 23.8593C22.5648 23.7511 22.7002 23.6743 22.8486 23.6372C22.9969 23.6001 23.1526 23.6041 23.2988 23.6488C23.5937 23.7443 23.8594 23.9134 24.0708 24.14C24.2247 24.4177 24.2744 24.7412 24.2111 25.0523C24.1709 25.2017 24.1003 25.3411 24.0037 25.4618C23.9071 25.5826 23.7866 25.6821 23.6497 25.7541C21.5344 27.1774 19.0414 27.9351 16.4918 27.9295C15.2317 27.92 13.9793 27.731 12.7725 27.3681C11.0378 26.8073 9.45374 25.8585 8.14052 24.5939C6.8273 23.3293 5.81948 21.7822 5.19358 20.0699H0.562002C1.5765 23.7998 3.907 27.0364 7.12272 29.1813C10.3384 31.3262 14.222 32.2345 18.0554 31.7382C21.8888 31.2419 25.413 29.3746 27.9765 26.4815C30.54 23.5884 31.9694 19.865 32.0006 15.9997C32.0137 15.414 31.9902 14.8281 31.9304 14.2453H26.0357C25.7964 14.2295 25.5658 14.1494 25.3682 14.0136C25.1706 13.8777 25.0133 13.6911 24.9129 13.4734Z" fill="#100A42"/>
<path d="M16.0673 22.9997C17.4488 22.9864 18.7955 22.5646 19.9378 21.7874C21.08 21.0102 21.9668 19.9123 22.4863 18.6322C23.0058 17.352 23.1348 15.9467 22.8572 14.5933C22.5795 13.2399 21.9076 11.9989 20.926 11.0266C19.9444 10.0544 18.6971 9.39435 17.3411 9.12967C15.9851 8.86498 14.5811 9.00748 13.3059 9.53921C12.0307 10.0709 10.9414 10.9681 10.1752 12.1178C9.40896 13.2674 9.00006 14.6181 9 15.9997C8.99996 16.9246 9.18322 17.8404 9.53921 18.6941C9.89519 19.5478 10.4168 20.3225 11.074 20.9734C11.7311 21.6243 12.5108 22.1385 13.3678 22.4863C14.2249 22.8341 15.1424 23.0086 16.0673 22.9997Z" fill="white"/>
</g>
<defs>
<clipPath id="clip0_611_1496">
<rect width="32" height="32" fill="white"/>
</clipPath>
</defs>
</svg>
